<?xml version="1.0" encoding="UTF-8"?>
<svg id="Layer_3" data-name="Layer 3" xmlns="http://www.w3.org/2000/svg" viewBox="0 0 1325.5 420">
  <defs>
    <style>
      .cls-1 {
        fill: #1f89e5;
        stroke: #1f89e5;
      }

      .cls-1, .cls-2 {
        stroke-miterlimit: 10;
      }

      .cls-2 {
        fill: #f6f6f6;
        stroke: #f6f6f6;
      }
    </style>
  </defs>
  <g>
    <polygon class="cls-2" points="209.36 206.49 209.36 239.68 250.23 239.68 250.23 376.43 285.16 376.43 285.16 239.68 324.93 239.68 324.93 206.49 209.36 206.49"/>
    <path class="cls-2" d="m423.16,250.76v39.36c-3.95-.46-6.75-.69-10-.69-17.91,0-30.24,8.97-30.24,30.84v57.31h-44.19v-124.74h42.1v14.96c9.07-11.28,23.73-17.03,42.33-17.03Z"/>
    <path class="cls-2" d="m545.83,243.48h33.73v133.03h-33.73v-14.06c-6.58,6.2-13.19,10.66-19.81,13.39-6.62,2.73-13.8,4.1-21.54,4.1-17.36,0-32.38-6.66-45.05-19.99-12.67-13.33-19.01-29.9-19.01-49.7s6.13-37.37,18.39-50.5c12.26-13.12,27.15-19.69,44.68-19.69,8.06,0,15.63,1.51,22.71,4.52,7.08,3.02,13.62,7.54,19.63,13.57v-14.67Zm-35.46,27.39c-10.43,0-19.09,3.65-25.99,10.94-6.9,7.3-10.35,16.65-10.35,28.06s3.51,20.95,10.53,28.37c7.02,7.42,15.66,11.13,25.93,11.13s19.38-3.65,26.35-10.94c6.98-7.29,10.47-16.85,10.47-28.67s-3.49-20.95-10.47-28.12c-6.98-7.17-15.8-10.76-26.48-10.76Z"/>
    <path class="cls-2" d="m592.98,243.25h34.37l33.96,78.96,33.89-78.96h34.2l-57.21,133.81h-21.87l-57.34-133.81Z"/>
    <path class="cls-2" d="m877.98,317.5h-105.8c1.53,9.46,5.61,16.98,12.24,22.56s15.1,8.38,25.39,8.38c12.3,0,22.88-4.36,31.73-13.08l27.75,13.21c-6.92,9.95-15.2,17.3-24.85,22.07-9.65,4.77-21.11,7.15-34.38,7.15-20.59,0-37.36-6.58-50.31-19.75-12.95-13.16-19.42-29.65-19.42-49.46s6.45-37.15,19.36-50.56c12.91-13.41,29.09-20.11,48.56-20.11,20.67,0,37.48,6.71,50.43,20.11,12.95,13.41,19.42,31.12,19.42,53.13l-.12,6.36Zm-32.93-26.29c-2.18-7.42-6.47-13.45-12.87-18.1s-13.83-6.97-22.3-6.97c-9.18,0-17.24,2.61-24.17,7.83-4.35,3.26-8.38,9.01-12.08,17.24h71.42Z"/>
    <path class="cls-2" d="m893.92,192.86h36.76v184.39h-36.76v-184.39Z"/>
    <path class="cls-2" d="m1127.27,237.9c12.15,0,23.58,3.14,34.28,9.41,10.7,6.28,19.04,14.8,25.04,25.56s9,22.38,9,34.85-3.02,24.29-9.06,35.21c-6.04,10.92-14.27,19.46-24.69,25.62-10.42,6.15-21.91,9.23-34.46,9.23-18.47,0-34.24-6.79-47.31-20.36-13.07-13.57-19.6-30.06-19.6-49.46,0-20.79,7.38-38.11,22.14-51.97,12.95-12.06,27.83-18.1,44.64-18.1Zm.53,31.42c-10.04,0-18.41,3.61-25.09,10.82-6.68,7.21-10.02,16.45-10.02,27.69s3.3,20.95,9.9,28.12c6.6,7.17,14.96,10.76,25.09,10.76s18.54-3.63,25.26-10.88c6.72-7.25,10.08-16.59,10.08-28s-3.3-20.68-9.9-27.82c-6.6-7.13-15.04-10.7-25.32-10.7Z"/>
    <path class="cls-1" d="m52.15,80.11H15.5v60.8l36.65,3.62v206.27c3.06,7.07,9.36,19.16,21.56,30.4,12.05,11.11,24.4,16.35,31.62,18.82h100.62v-60.8c-29.84-1.87-43-1.94-48.87-1.45-3.55.3-5.24.2-8.62,0-6.95-.4-10.42-.61-12.94-2.9-4.29-3.91-3.16-11.38-2.87-13.03l-1.44-176.6h1164.29v-65.14H131.21l-1.44-79.61H53.59l-1.44,79.61Z"/>
    <ellipse class="cls-1" cx="1232.97" cy="358.76" rx="17.97" ry="18.09"/>
  </g>
  <path class="cls-2" d="m950.95,279.53v-27.25h94.91v27.25h-94.91Zm23.28,83.72l-23.28-14.26,73.08-83.25,21.83,13.8-71.63,83.72Zm-23.28,12.98v-27.24h97.14v27.24h-97.14Z"/>
</svg>